<mxfile host="app.diagrams.net" modified="2020-07-25T08:08:20.742Z" agent="5.0 (Windows NT 10.0; Win64; x64) AppleWebKit/537.36 (KHTML, like Gecko) Chrome/84.0.4147.89 Safari/537.36 Edg/84.0.522.40" etag="uojM_5CNidG8tm2I9Wl4" version="13.5.3" type="github">
  <diagram id="-dDPwba0YqA7dJmgXwbq" name="Page-1">
    <mxGraphModel dx="1038" dy="622" grid="1" gridSize="10" guides="1" tooltips="1" connect="1" arrows="1" fold="1" page="1" pageScale="1" pageWidth="827" pageHeight="1169" math="0" shadow="0">
      <root>
        <mxCell id="0" />
        <mxCell id="1" parent="0" />
        <mxCell id="Uhn9xvu4Y8dma2e4e4Zl-2" style="rounded=0;orthogonalLoop=1;jettySize=auto;html=1;shape=flexArrow;dashed=1;startArrow=none;startFill=0;endSize=6;startSize=3;sketch=0;shadow=0;" parent="1" source="Uhn9xvu4Y8dma2e4e4Zl-1" edge="1">
          <mxGeometry relative="1" as="geometry">
            <mxPoint x="380" y="270" as="targetPoint" />
          </mxGeometry>
        </mxCell>
        <mxCell id="Uhn9xvu4Y8dma2e4e4Zl-1" value="流程图" style="rounded=0;whiteSpace=wrap;html=1;" parent="1" vertex="1">
          <mxGeometry x="320" y="40" width="120" height="60" as="geometry" />
        </mxCell>
      </root>
    </mxGraphModel>
  </diagram>
</mxfile>
